<svg width="383" height="100" viewBox="0 0 383 100" xmlns="http://www.w3.org/2000/svg">
  <g clip-path="url(#a)" fill="#fff">
    <path d="M28.283 41.024c1.748 4.92 5.8-.873 6.753-3.412h.715L31.62 49.116l-4.528 11.506L6.197 7.3S4.29 1.348 0 1.348V.078h20.02v1.27c-.69.013-1.38.066-2.065.158a5.221 5.221 0 0 0-3.733 1.587c-.715 1.108.715 4.205 1.513 6.269l12.548 31.662zM56.486.079v1.032c-4.843 0-9.613 9.045-13.188 17.218h-.794c2.22-7.934 3.178-17.218-5.8-17.218V.079h19.782zM91.28 51.338c0 4.92 2.861 5.713 6.038 5.713v1.034H77.14V57.05c3.098 0 6.037-.792 6.037-5.713V6.824c0-4.92-2.939-5.713-6.037-5.713V.08h20.178V1.11c-3.178 0-6.037.793-6.037 5.713v44.514zM146.257 41.025c1.747 4.92 5.799-.873 6.752-3.412h.716l-4.132 11.503-4.528 11.507L124.171 7.3s-1.908-5.952-6.198-5.952V.078h20.021v1.27c-.69.014-1.38.066-2.065.158a5.218 5.218 0 0 0-3.733 1.588c-.715 1.108.715 4.205 1.513 6.268l12.548 31.663zM174.461.08V1.11c-4.843 0-9.613 9.045-13.19 17.219h-.793c2.22-7.935 3.179-17.219-5.801-17.219V.08h19.784zM197.417 57.052v1.033h-19.781v-1.033c5.084 0 9.056-7.538 12.076-14.441h.636c-1.748 6.587-2.303 14.44 7.07 14.44h-.001zm36.787 0v1.033h-20.097v-1.033c4.21 0 6.195-2.857 4.766-7.142L202.504 8.331a5.207 5.207 0 0 0-3.733-3.015 17.686 17.686 0 0 0 9.297-5.317s19.384 49.436 19.543 49.753c2.78 6.348 3.496 7.3 6.593 7.3zM269.473.08l33.449 46.023v11.982h-2.702L264.55 8.887c-2.703-3.65-5.402-7.457-9.694-7.457V.08h14.617zm5.802 56.893v1.109h-20.419v-1.109c3.178 0 5.719-.874 6.913-3.017 1.747-3.173 2.538-8.805 2.942-13.488h.874c.474 4.683 1.346 10.399 3.095 13.49 1.192 2.064 3.657 3.016 6.594 3.016h.001zM312.534.08v1.108c-3.02 0-5.402.952-6.593 3.015-1.748 3.095-2.623 8.727-3.098 13.489h-.874c-.398-4.682-1.271-10.315-3.021-13.489-1.11-2.142-3.653-3.015-6.83-3.015V.08h20.416zM345.344.794c-3.815 1.508-9.614 5.95-10.485 16.504h-1.672L334.297.08h11.047v.714zm25.104 56.178v1.109h-24.709v-1.109c3.972 0 8.185-.395 8.185-5.634V.08h8.341l-.079 51.179c0 5.474 4.448 5.712 8.262 5.712v.001zM383 17.298h-1.669c-.317-10.714-6.512-15.076-10.486-16.584V.08h11.043L383 17.298zM100.391 90.341a3.904 3.904 0 0 0-1.704-1.296 5.776 5.776 0 0 0-2.118-.398 5.459 5.459 0 0 0-2.22.443 5.39 5.39 0 0 0-1.735 1.205 5.404 5.404 0 0 0-1.14 1.8 6.061 6.061 0 0 0-.403 2.229c-.008.778.134 1.55.42 2.273.265.668.66 1.277 1.161 1.793a5.347 5.347 0 0 0 1.749 1.183 5.493 5.493 0 0 0 2.169.427c.8.013 1.595-.144 2.331-.46a4.448 4.448 0 0 0 1.764-1.432l-.963-.807c-.364.47-.828.852-1.358 1.12-.553.267-1.16.4-1.773.389a3.938 3.938 0 0 1-1.673-.35 3.986 3.986 0 0 1-1.298-.955 4.376 4.376 0 0 1-.848-1.419 5.001 5.001 0 0 1-.303-1.762c-.002-.58.1-1.157.303-1.701a4.498 4.498 0 0 1 .856-1.434 4.15 4.15 0 0 1 1.305-.985 3.752 3.752 0 0 1 1.658-.366c.517 0 1.028.113 1.497.331.482.219.898.558 1.21.985l1.113-.813zm13.031-1.418h-1.283v6.5c.001.425-.045.85-.138 1.266a3.13 3.13 0 0 1-.458 1.083 2.31 2.31 0 0 1-.855.756 2.87 2.87 0 0 1-1.345.282 2.867 2.867 0 0 1-1.345-.282 2.322 2.322 0 0 1-.856-.756 3.148 3.148 0 0 1-.457-1.083 5.802 5.802 0 0 1-.137-1.267v-6.5h-1.284v6.684a6.183 6.183 0 0 0 .222 1.678c.138.509.378.984.706 1.397.338.415.77.744 1.26.961a4.498 4.498 0 0 0 1.895.359 4.503 4.503 0 0 0 1.891-.36 3.418 3.418 0 0 0 1.26-.961c.328-.413.568-.888.706-1.397.15-.546.225-1.111.222-1.678l-.004-6.682zm5.496 10.802h1.283v-4.852h1.65l2.932 4.852h1.574l-3.066-4.974a3.442 3.442 0 0 0 1.983-.931 2.632 2.632 0 0 0 .718-1.923 2.904 2.904 0 0 0-.378-1.594 2.503 2.503 0 0 0-.993-.893 4.192 4.192 0 0 0-1.382-.397 13.166 13.166 0 0 0-1.551-.091h-2.77v10.803zm1.288-9.612h1.803c.314-.002.628.017.939.056.293.036.577.121.841.252.246.124.455.31.605.542.165.282.245.605.229.931.024.37-.087.736-.313 1.03a1.824 1.824 0 0 1-.794.526 3.8 3.8 0 0 1-1.054.202c-.382.02-.752.03-1.11.03h-1.146v-3.57zm10.909 9.613h1.282V88.923h-1.283l.001 10.803zm14.125-.152a5.453 5.453 0 0 0 1.787-1.183 5.328 5.328 0 0 0 1.177-1.801 6.04 6.04 0 0 0 .42-2.266 6.039 6.039 0 0 0-.42-2.266 5.31 5.31 0 0 0-1.179-1.8 5.453 5.453 0 0 0-1.786-1.183 6.24 6.24 0 0 0-4.541 0 5.451 5.451 0 0 0-1.784 1.183 5.291 5.291 0 0 0-1.177 1.8 6.019 6.019 0 0 0-.42 2.267 6.019 6.019 0 0 0 .42 2.266 5.291 5.291 0 0 0 1.177 1.8c.511.508 1.119.91 1.786 1.182a6.24 6.24 0 0 0 4.541 0h-.001zm-4.005-1.115a4.064 4.064 0 0 1-1.352-.961 4.373 4.373 0 0 1-.879-1.427 4.828 4.828 0 0 1-.312-1.747 4.827 4.827 0 0 1 .312-1.748 4.372 4.372 0 0 1 .879-1.426c.38-.41.84-.738 1.352-.962a4.46 4.46 0 0 1 3.468 0c.512.225.972.552 1.352.962.381.415.679.9.879 1.426.21.559.316 1.151.312 1.748a4.872 4.872 0 0 1-.312 1.747 4.435 4.435 0 0 1-.876 1.427c-.38.41-.84.736-1.352.961a4.46 4.46 0 0 1-3.468 0h-.003zm20.419-9.536h-1.284v6.5c.002.425-.044.85-.137 1.266a3.145 3.145 0 0 1-.454 1.083c-.217.32-.512.579-.855.756a3.347 3.347 0 0 1-2.689 0 2.315 2.315 0 0 1-.856-.756 3.154 3.154 0 0 1-.463-1.083 5.802 5.802 0 0 1-.137-1.267v-6.5h-1.283v6.684a6.144 6.144 0 0 0 .222 1.678c.137.51.377.984.706 1.397.338.415.77.744 1.26.961a5.188 5.188 0 0 0 3.789 0 3.417 3.417 0 0 0 1.26-.961c.328-.413.568-.888.706-1.397.15-.547.224-1.111.222-1.678l-.007-6.683zm11.687.991a3.262 3.262 0 0 0-1.354-.984 4.758 4.758 0 0 0-1.672-.283 4.709 4.709 0 0 0-1.376.202 3.75 3.75 0 0 0-1.176.587 2.851 2.851 0 0 0-.82.966 2.845 2.845 0 0 0-.303 1.358c-.011.394.057.786.202 1.152.13.31.322.59.565.824.25.237.536.433.847.58.346.165.704.305 1.07.419l1.253.427c.311.101.608.24.886.412.216.135.394.32.519.542.122.255.18.535.169.817.005.283-.069.562-.214.806a1.981 1.981 0 0 1-.555.592c-.231.16-.486.282-.757.359a2.99 2.99 0 0 1-2.162-.183 2.253 2.253 0 0 1-.978-.9l-1.099.9c.176.268.399.503.657.694.251.186.526.34.817.457.293.118.597.205.908.26.787.14 1.596.104 2.368-.107a3.66 3.66 0 0 0 1.21-.58 2.837 2.837 0 0 0 1.169-2.388 2.904 2.904 0 0 0-.268-1.32 2.572 2.572 0 0 0-.718-.878 4.152 4.152 0 0 0-1.039-.58 20.925 20.925 0 0 0-1.211-.427 9.651 9.651 0 0 1-1.084-.397 2.77 2.77 0 0 1-.707-.427 1.364 1.364 0 0 1-.374-.51 1.713 1.713 0 0 1-.115-.65 1.637 1.637 0 0 1 .202-.824c.129-.228.313-.42.535-.56.227-.146.478-.254.74-.32.274-.072.557-.108.841-.107.384 0 .764.08 1.114.236.357.158.656.422.856.756l1.054-.92zm12.267 9.81h3.228c.505 0 1.009-.045 1.506-.136a4.285 4.285 0 0 0 1.36-.48c.396-.225.731-.541.977-.924.266-.447.396-.96.375-1.48a2.712 2.712 0 0 0-.184-1 2.564 2.564 0 0 0-.511-.816 2.72 2.72 0 0 0-1.75-.84v-.03a2.764 2.764 0 0 0 1.382-.877c.35-.444.53-.997.509-1.561a2.336 2.336 0 0 0-.313-1.252 2.515 2.515 0 0 0-.817-.816 3.566 3.566 0 0 0-1.146-.451 6.265 6.265 0 0 0-1.312-.137h-3.304v10.8zm1.285-9.611h1.91c.284 0 .567.022.848.068.262.04.515.125.748.252.215.118.396.289.527.496.143.247.213.53.202.816.014.316-.06.63-.214.907a1.503 1.503 0 0 1-.565.534c-.245.13-.512.215-.787.252a6.365 6.365 0 0 1-.894.061h-1.775v-3.386zm0 4.578h2.201c.32-.001.639.03.953.09.293.054.573.163.825.32.24.155.439.364.581.611.156.29.232.617.222.947.01.308-.07.613-.229.877a1.787 1.787 0 0 1-.606.58 2.76 2.76 0 0 1-.84.32c-.309.066-.624.1-.94.1h-2.169l.002-3.846zm13.75 5.038h1.283V95.07l4.036-6.146h-1.543l-3.127 4.883-3.047-4.885h-1.64l4.036 6.146.002 4.66zm16.485 0h1.283v-8.975h.03l6.264 8.968h1.619v-10.8h-1.283v8.969h-.03l-6.264-8.968h-1.619v10.806zm13.49 0h1.452l1.115-2.655h5.408l1.1 2.655h1.497l-4.599-10.806h-1.211l-4.762 10.806zm7.487-3.845h-4.416l2.245-5.312h.031l2.14 5.312zm13.23-6.953h-8.434v1.182h3.575v9.613h1.282v-9.613h3.575l.002-1.182zm12.48 0h-1.283v6.491c.001.426-.045.85-.137 1.267a3.151 3.151 0 0 1-.459 1.083c-.217.32-.511.58-.855.756a3.347 3.347 0 0 1-2.689 0 2.31 2.31 0 0 1-.855-.756 3.132 3.132 0 0 1-.459-1.083 5.802 5.802 0 0 1-.137-1.267v-6.5h-1.283v6.684a6.223 6.223 0 0 0 .222 1.678c.138.509.378.984.706 1.397.339.415.77.744 1.26.961a5.188 5.188 0 0 0 3.789 0 3.41 3.41 0 0 0 1.26-.961c.328-.413.569-.888.706-1.397a6.183 6.183 0 0 0 .222-1.678l-.008-6.675zm5.5 10.803h1.283v-4.861h1.65l2.933 4.852h1.574l-3.068-4.974a3.43 3.43 0 0 0 1.987-.931 2.617 2.617 0 0 0 .718-1.923 2.889 2.889 0 0 0-.384-1.594 2.479 2.479 0 0 0-.993-.893 4.173 4.173 0 0 0-1.382-.397 13.11 13.11 0 0 0-1.551-.091h-2.765l-.002 10.812zm1.283-9.613h1.803c.314 0 .628.02.939.061.293.036.577.12.841.252.247.124.456.31.605.542.165.282.245.605.229.931.025.37-.086.737-.313 1.03a1.814 1.814 0 0 1-.794.526 3.8 3.8 0 0 1-1.054.202c-.382.02-.75.03-1.11.03h-1.146V90.12zm10.909 9.613h7.073v-1.201h-5.79v-3.844h5.146V93.5h-5.146v-3.386h5.515v-1.19h-6.798v10.811z"></path>
  </g>
  <defs>
    <clipPath id="a">
      <path d="M0 0h383v100H0V0z" fill="#fff"></path>
    </clipPath>
  </defs>
</svg>