<svg class="icon" width="30px" height="30px" viewBox="0 0 1024 1024" xmlns="http://www.w3.org/2000/svg">
  <path d="M318.026 13.683c-59.304 19.063-103.076 62.834-126.373 123.55-33.888 91.072-7.765 215.33 66.365 312.052 42.36 55.067 30.358 89.661-38.829 115.783-88.249 33.888-166.615 84.719-199.091 129.903-22.593 31.769-26.829 82.601-9.177 117.195 12.002 23.298 82.601 60.716 128.491 67.777l28.946 4.236-7.060-28.946c-23.298-90.367 28.24-153.908 164.497-204.74 35.3-13.414 43.066-20.475 72.012-63.54 17.65-26.829 43.772-57.186 57.186-67.777s26.829-26.122 29.652-33.888c2.118-8.471 13.414-26.829 24.005-40.243 94.605-121.432 103.783-294.402 19.769-380.533-37.418-38.124-72.718-52.243-136.258-54.361-31.064-1.412-64.246 0-74.13 3.529zM959.073 306.672c2.118 3.529-3.529 4.942-11.295 2.824-8.471-2.824-14.12-1.412-12.002 1.412 5.647 8.471-23.298 23.298-36.006 18.356-4.942-2.118-9.177-0.706-7.765 2.824 0.706 4.236-6.353 11.295-16.238 16.238-20.475 9.883-26.829 35.3-12.707 52.949 8.471 11.295 7.765 11.295-4.942 0-13.414-11.295-15.532-9.883-53.656 24.711-21.887 20.475-89.661 80.483-150.378 133.434-95.31 83.307-112.959 96.017-124.962 90.367-21.887-12.002-20.475-41.654 4.942-74.13 21.18-28.24 21.18-31.769-0.706-31.769-33.182 0-59.304 20.475-96.017 74.836-31.769 46.596-40.948 55.774-75.542 71.306-22.593 9.177-55.067 24.005-72.718 31.769-55.067 24.005-84.014 58.598-84.014 100.252 0 27.534 34.594 85.425 76.248 127.079 97.429 98.841 165.908 86.131 227.332-43.066 28.24-58.598 28.946-59.304 72.718-79.072 48.714-22.593 71.306-42.36 67.070-62.128-2.824-12.707-5.647-12.707-50.125-4.236-20.475 4.236-47.301-12.707-47.301-29.652 0-4.942 45.184-51.537 100.958-103.076 190.619-179.324 213.212-200.503 222.389-213.212 5.647-7.060 19.063-12.002 33.888-12.002 21.18 0 27.534-4.236 47.301-32.476 15.532-21.887 26.122-31.064 34.594-28.946 6.353 2.118 17.65-0.706 24.711-5.647 21.18-15.532 3.529-35.3-31.769-35.3-15.532 0-26.829 2.824-24.005 6.353zM678.793 673.792l-22.593 23.298 17.65 12.002c9.883 6.353 20.475 21.887 24.005 34.594 13.414 48.714-16.943 93.191-86.837 125.668-23.298 10.589-38.829 19.769-35.3 19.769 19.769 0.706 100.252-22.593 130.609-38.124 40.948-20.475 56.48-45.89 56.48-91.78 0-37.418-11.295-62.128-40.243-89.661l-20.475-19.769-23.298 24.005z" style="fill: rgb(130, 147, 167);"></path>
</svg>