<svg width="19px" height="21px" viewBox="0 0 19 21" version="1.1" xmlns="http://www.w3.org/2000/svg" xmlns:xlink="http://www.w3.org/1999/xlink">
  <g id="Simplified-Missions" stroke="none" stroke-width="1" fill="none" fill-rule="evenodd">
      <g id="Pix4D---New-Copy-3" transform="translate(-994.000000, -652.000000)" fill="#3d4d65">
          <g id="delete_icon" transform="translate(994.000000, 652.000000)">
              <path d="M17.8839875,3.37663846 L14.0597625,3.37663846 L13.2999525,1.84990615 C12.898245,1.02264346 12.066995,0.504904615 11.1624525,0.517213846 L7.8132275,0.517213846 C6.90961125,0.504909462 6.07836125,1.02264346 5.6757275,1.84990615 L4.9390975,3.37663846 L1.1158225,3.37663846 C0.59166,3.37663846 0.1658225,3.81015115 0.1658225,4.34586923 C0.1658225,4.88064231 0.59166,5.3151 1.1158225,5.3151 L2.4462025,5.3151 L2.4462025,17.0907692 C2.4462025,18.9648738 3.9342825,20.4830767 5.7712025,20.4830767 L13.2524525,20.4830767 C15.0884462,20.4830767 16.5774525,18.9648738 16.5774525,17.0907692 L16.5774525,5.3151 L17.9078325,5.3151 L17.9069062,5.3151 C18.431995,5.3151 18.8569062,4.88064231 18.8569062,4.34586923 C18.8569062,3.81015115 18.431995,3.37663846 17.9069062,3.37663846 L17.8839875,3.37663846 Z M7.386725,2.72165654 C7.467437,2.55790985 7.63351125,2.45378538 7.81348875,2.45567538 L11.1867012,2.45567538 C11.3666811,2.45378296 11.5327387,2.55790015 11.613465,2.72165654 L11.922405,3.37569346 L7.07788,3.37664088 L7.386725,2.72165654 Z M14.6777375,17.090745 C14.6777375,17.8943342 14.0394562,18.5445912 13.2527375,18.5445912 L5.7472625,18.5445912 C4.96054375,18.5445912 4.3222625,17.8943342 4.3222625,17.090745 L4.3222625,5.31507577 L14.6777375,5.31507577 L14.6777375,17.090745 Z" id="Fill-1"></path>
              <path d="M11.5902375,16.5576923 C11.841655,16.5576923 12.0837862,16.4554675 12.2619112,16.2737319 C12.4400362,16.0919963 12.5402375,15.8459135 12.5402375,15.5884615 L12.5402375,8.48860385 C12.5402375,7.95383077 12.1144,7.51937308 11.5902375,7.51937308 C11.0651487,7.51937308 10.6402375,7.95383077 10.6402375,8.48860385 L10.6402375,15.5884615 C10.6402375,15.8459135 10.740434,16.0920012 10.9185637,16.2737319 C11.0966935,16.4554627 11.3378937,16.5576923 11.5902375,16.5576923 Z" id="Fill-2"></path>
              <path d="M7.4097625,16.5576923 C7.66210625,16.5576923 7.90331125,16.4554675 8.08143625,16.2737319 C8.25956125,16.0919963 8.3597625,15.8459135 8.3597625,15.5884615 L8.3597625,8.48860385 C8.3597625,7.95383077 7.93485125,7.51937308 7.4097625,7.51937308 C6.8856,7.51937308 6.4597625,7.95383077 6.4597625,8.48860385 L6.4597625,15.5884615 C6.4597625,15.8459135 6.559959,16.0920012 6.73808875,16.2737319 C6.9162185,16.4554627 7.158345,16.5576923 7.4097625,16.5576923 Z" id="Fill-3"></path>
          </g>
      </g>
  </g>
</svg>